<svg xmlns="http://www.w3.org/2000/svg" width="100%" aria-label="Scys Radar: 生财有术雷达，装进 Obsidian 侧栏的社区情报站" role="img" viewBox="0 0 1200 300"><title>Scys Radar 生财雷达：把生财有术装进 Obsidian 侧栏</title><desc>左侧为雷达扫描图形，标注 hot/digest/fxb/sail 四个数据源；中部为插件名与价值说明；右侧为插件 UI 预览，兴趣关键词橙色高亮。</desc><defs><linearGradient id="scanline" x1="0" x2="1" y1="0" y2="0"><stop offset="0" stop-color="#F59A23" stop-opacity=".55"/><stop offset="1" stop-color="#F59A23" stop-opacity="0"/></linearGradient><marker id="dot" markerHeight="4" markerWidth="4" refX="4" refY="4" viewBox="0 0 8 8"><circle cx="4" cy="4" r="3" fill="#F59A23"/></marker></defs><style>.t1{font:600 44px -apple-system,&apos;Segoe UI&apos;,&apos;PingFang SC&apos;,&apos;Microsoft YaHei&apos;,sans-serif;fill:#1a1a1a}.t2{font:400 20px -apple-system,&apos;Segoe UI&apos;,&apos;PingFang SC&apos;,&apos;Microsoft YaHei&apos;,sans-serif;fill:#5c5c5c}.tag{font:500 13px ui-monospace,&apos;SF Mono&apos;,Menlo,monospace;fill:#f59a23}.mono{font:400 13px ui-monospace,&apos;SF Mono&apos;,Menlo,monospace;fill:#8a8a8a}</style><g transform="translate(90,150)"><circle r="86" fill="none" stroke="#F59A23" stroke-opacity=".25" stroke-width="1.5"/><circle r="58" fill="none" stroke="#F59A23" stroke-opacity=".35" stroke-width="1.5"/><circle r="30" fill="none" stroke="#F59A23" stroke-opacity=".5" stroke-width="1.5"/><circle r="4" fill="#F59A23"/><path fill="url(#scanline)" d="M0 0 L86 0 A86 86 0 0 0 43 -74.5 Z"/><circle cx="52" cy="-34" r="6" fill="#F59A23"><animate attributeName="opacity" dur="2s" repeatCount="indefinite" values="1;0.3;1"/></circle><circle cx="-58" cy="-14" r="5" fill="#d97a06"><animate attributeName="opacity" dur="2.6s" repeatCount="indefinite" values="0.4;1;0.4"/></circle><circle cx="20" cy="52" r="5" fill="#d97a06"><animate attributeName="opacity" dur="3s" repeatCount="indefinite" values="0.5;1;0.5"/></circle><circle cx="-30" cy="44" r="4" fill="#F59A23" opacity=".7"/><text x="62" y="-40" fill="#8a8a8a" font-family="ui-monospace, Menlo, monospace" font-size="12">hot</text><text x="-96" y="-18" fill="#8a8a8a" font-family="ui-monospace, Menlo, monospace" font-size="12">digest</text><text x="30" y="70" fill="#8a8a8a" font-family="ui-monospace, Menlo, monospace" font-size="12">fxb</text><text x="-72" y="62" fill="#8a8a8a" font-family="ui-monospace, Menlo, monospace" font-size="12">sail</text></g><g><text x="0" y="86" class="tag" transform="translate(240,0)">OBSIDIAN PLUGIN · 生财有术 MCP</text><text x="0" y="142" class="t1" transform="translate(240,0)">Scys Radar <tspan fill="#F59A23">生财雷达</tspan></text><text x="0" y="186" class="t2" transform="translate(240,0)">把生财有术装进 Obsidian 侧栏 —— 热门、精华、风向标、航海，</text><text x="0" y="216" class="t2" transform="translate(240,0)">你的兴趣关键词自动高亮，好帖一键收藏为笔记。</text><g transform="translate(240,0) translate(0,248)"><rect width="118" height="30" x="0" y="0" fill="none" stroke="#F59A23" stroke-width="1.2" rx="15"/><text x="59" y="20" fill="#F59A23" class="mono" text-anchor="middle">searchTopic</text><rect width="130" height="30" x="130" y="0" fill="none" stroke="#F59A23" stroke-width="1.2" rx="15"/><text x="195" y="20" fill="#F59A23" class="mono" text-anchor="middle">contentSearch</text><rect width="112" height="30" x="272" y="0" fill="none" stroke="#F59A23" stroke-width="1.2" rx="15"/><text x="328" y="20" fill="#F59A23" class="mono" text-anchor="middle">topicDetail</text><rect width="110" height="30" x="396" y="0" fill="none" stroke="#F59A23" stroke-width="1.2" rx="15"/><text x="451" y="20" fill="#F59A23" class="mono" text-anchor="middle">activityList</text></g></g><g transform="translate(860,44)"><rect width="290" height="212" x="0" y="0" fill="#fff" stroke="#e5e5e5" stroke-width="1" rx="12"/><rect width="290" height="34" x="0" y="0" fill="#FFF6E8" rx="12"/><rect width="290" height="12" x="0" y="22" fill="#FFF6E8"/><text x="14" y="22" fill="#F59A23" font-family="ui-monospace, Menlo, monospace" font-size="12">🔥 热门 💎 精华 🧭 风向标 ⛵ 航海</text><rect width="266" height="46" x="12" y="46" fill="#FAFAFA" stroke="#eee" rx="8"/><rect width="266" height="46" x="12" y="100" fill="#FAFAFA" stroke="#eee" rx="8"/><rect width="266" height="46" x="12" y="154" fill="#FAFAFA" stroke="#eee" rx="8"/><text x="24" y="64" fill="#1a1a1a" font-family="-apple-system,'PingFang SC',sans-serif" font-size="12">从封店月损 8 万到单月 5 万，<tspan fill="#F59A23" font-weight="600">AI</tspan> 原创重做小红书虚拟</text><text x="24" y="82" fill="#aaa" font-family="ui-monospace,Menlo,monospace" font-size="10">尹星河 · 👍 56 · 👁 784</text><text x="24" y="118" fill="#1a1a1a" font-family="-apple-system,'PingFang SC',sans-serif" font-size="12">OpenAI DevDay 新出的 <tspan fill="#F59A23" font-weight="600">Agent</tspan> 产品 Dot</text><text x="24" y="136" fill="#aaa" font-family="ui-monospace,Menlo,monospace" font-size="10">袁欣就是圆心 · 👍 2 · 👁 470</text><text x="24" y="172" fill="#1a1a1a" font-family="-apple-system,'PingFang SC',sans-serif" font-size="12"><tspan fill="#F59A23" font-weight="600">ChatGPT</tspan> 可以投放广告了，分享这个机会</text><text x="24" y="190" fill="#aaa" font-family="ui-monospace,Menlo,monospace" font-size="10">小王子 · 👍 2 · 👁 344</text></g></svg>